<svg aria-hidden="true" style="width:0;height:0;position:absolute;overflow:hidden" xmlns="http://www.w3.org/2000/svg"><defs><symbol id="icon-heart" viewBox="0 0 30 32"><path d="M6.92.029c-.172.008-.323.034-.336.05s-.197.067-.407.109c-.214.038-.39.088-.39.105s-.071.046-.155.063c-.201.038-.533.147-.558.189a.882.882 0 0 1-.239.101c-.117.042-.222.084-.231.101-.017.038-.386.218-.449.218-.025 0-.046.021-.046.042 0 .025-.067.075-.147.113s-.147.084-.147.101-.075.067-.168.117c-.088.046-.201.117-.243.159s-.147.13-.226.193c-.319.247-1.179 1.132-1.325 1.371-.038.059-.092.122-.122.138s-.055.059-.055.092a.112.112 0 0 1-.059.092.557.557 0 0 0-.126.168c-.038.075-.084.138-.101.138-.021 0-.067.092-.109.21-.042.113-.092.21-.117.21-.021 0-.059.055-.08.126-.025.067-.059.126-.08.126-.017 0-.055.088-.084.193s-.076.214-.105.239c-.025.029-.08.159-.122.289-.042.134-.088.243-.109.243-.017 0-.055.117-.084.26-.029.147-.071.277-.092.289-.017.013-.067.18-.105.377-.038.193-.084.361-.101.373C.131 6.674.064 7.681.064 8.7c0 1.011.071 2.068.138 2.118.013.013.059.218.101.461.038.239.088.445.109.461.021.013.063.138.088.281.029.147.067.264.08.264.017 0 .055.113.084.256.034.138.084.277.113.31.034.029.059.075.059.096 0 .088.147.495.197.545.029.029.055.092.055.134s.025.105.059.138c.034.034.08.134.105.231a.704.704 0 0 0 .101.226.844.844 0 0 1 .134.256c.042.109.088.197.105.197s.055.075.084.168.071.168.092.168c.021 0 .067.071.105.155.034.088.088.176.122.193s.059.063.059.092c0 .034.034.096.075.138a.979.979 0 0 1 .151.252c.042.096.096.176.117.176s.055.046.075.105.055.105.071.105c.021 0 .071.067.113.147.046.08.096.147.117.147s.055.046.075.105.071.117.105.13c.034.017.063.05.063.084 0 .029.046.088.105.126s.105.088.105.113c0 .025.038.084.08.134.046.046.168.176.273.285.105.113.193.214.193.226 0 .017.231.252.512.524.285.273.667.646.856.826s.394.365.461.407c.063.046.185.151.268.235.08.088.168.159.197.159.025 0 .084.046.126.096a.587.587 0 0 0 .168.147c.05.029.117.076.147.101.096.092.323.243.356.243.021 0 .059.038.088.084s.08.084.113.084c.034 0 .075.025.092.05.038.063.155.138.298.201.05.021.092.055.092.076s.075.071.168.113c.092.042.168.088.168.101 0 .017.096.071.21.126.117.055.21.113.21.13s.084.063.189.109c.105.042.189.088.189.101s.101.067.222.126c.117.055.226.113.239.126s.101.059.197.105c.101.046.18.096.18.113 0 .013.096.059.21.096.117.038.21.084.21.101s.122.076.273.13.273.113.273.126.084.05.193.08c.105.029.21.08.239.105.063.059.478.235.558.235.034 0 .059.017.059.034s.092.067.21.109.21.092.21.109.038.042.084.055c.084.021.084.059.084 4.366v4.345h2.139v-7.989h.839v7.989h2.139v-4.362c0-4.332 0-4.362.084-4.362.046 0 .084-.017.084-.034s.092-.067.21-.109c.113-.042.21-.088.21-.105 0-.013.113-.063.256-.105.138-.042.277-.101.302-.13.029-.025.159-.084.294-.126.13-.042.239-.088.239-.105s.117-.076.264-.13c.143-.05.268-.109.281-.126s.105-.063.21-.105.21-.096.231-.122a.646.646 0 0 1 .189-.109c.08-.029.18-.088.222-.126s.147-.092.239-.122c.092-.029.168-.071.168-.088 0-.021.071-.067.155-.101a.698.698 0 0 0 .18-.101.825.825 0 0 1 .222-.126c.109-.05.197-.105.197-.122 0-.021.067-.067.147-.105s.147-.084.147-.105.067-.063.151-.092a.634.634 0 0 0 .201-.126c.025-.038.113-.101.197-.138s.164-.101.18-.134c.013-.034.046-.063.076-.063s.13-.067.222-.147a1.1 1.1 0 0 1 .193-.147.876.876 0 0 0 .189-.147c.092-.08.176-.147.193-.147s.113-.084.218-.189c.109-.105.21-.189.226-.189.021 0 .243-.201.499-.453.256-.247.646-.625.868-.835.222-.214.403-.403.403-.424 0-.017.05-.08.117-.138.063-.059.189-.197.281-.31.092-.109.206-.239.252-.289s.117-.143.159-.21c.088-.13.185-.256.294-.369.038-.042.071-.092.071-.113 0-.025.034-.067.076-.096.038-.029.109-.13.155-.222s.096-.172.113-.18c.017-.008.063-.08.101-.159s.084-.143.105-.143.038-.025.038-.055c0-.029.034-.092.076-.138.038-.042.109-.155.155-.247s.096-.176.113-.189c.013-.013.059-.105.101-.21s.101-.214.13-.243c.029-.029.055-.08.055-.109s.038-.096.08-.147a.928.928 0 0 0 .134-.277c.029-.105.067-.189.084-.189.013 0 .059-.105.101-.231.038-.126.084-.231.101-.231s.059-.105.088-.231c.029-.126.067-.231.084-.231s.063-.147.109-.327c.042-.176.088-.331.105-.344.034-.029.164-.612.164-.738 0-.055.017-.101.038-.101s.059-.185.088-.411c.029-.222.067-.415.088-.428.017-.013.055-.424.084-.91.038-.688.038-1.061 0-1.657-.029-.419-.063-.776-.084-.788-.017-.013-.059-.197-.088-.411-.029-.21-.067-.386-.08-.386-.017 0-.063-.18-.109-.398-.042-.218-.088-.398-.105-.398-.013 0-.059-.122-.105-.273-.042-.151-.088-.273-.105-.273s-.055-.084-.084-.189-.067-.189-.084-.189c-.021 0-.067-.096-.109-.21-.042-.117-.088-.21-.105-.21-.013 0-.059-.084-.096-.189-.042-.105-.088-.189-.109-.189-.017 0-.055-.059-.088-.13-.029-.075-.096-.18-.151-.239s-.096-.126-.096-.151c0-.025-.038-.071-.084-.101s-.084-.08-.084-.113c0-.034-.038-.08-.084-.105s-.084-.071-.084-.101c0-.034-.046-.088-.105-.126s-.105-.088-.105-.113c0-.025-.117-.155-.26-.294-.147-.138-.34-.327-.436-.415-.092-.092-.18-.168-.197-.168a.435.435 0 0 1-.126-.096 1.794 1.794 0 0 0-.436-.315c-.076-.038-.138-.08-.138-.096 0-.021-.071-.067-.155-.109a.694.694 0 0 1-.201-.122.914.914 0 0 0-.239-.122c-.113-.042-.201-.088-.201-.101 0-.017-.092-.063-.21-.105-.113-.042-.21-.092-.21-.113s-.021-.038-.05-.038c-.076 0-.637-.18-.663-.21-.029-.038-.65-.168-.797-.168-.071 0-.126-.021-.126-.042 0-.025-.491-.042-1.384-.042s-1.384.017-1.384.042c0 .021-.071.042-.155.042-.201 0-.906.126-.935.168-.013.017-.206.071-.428.126-.226.05-.411.105-.411.126 0 .017-.13.067-.294.109-.159.042-.294.088-.294.105s-.126.071-.281.126c-.159.05-.294.105-.306.126-.013.017-.105.063-.21.105s-.197.088-.21.105a1.329 1.329 0 0 1-.231.122 1.48 1.48 0 0 0-.231.122.748.748 0 0 1-.176.101c-.088.042-.159.088-.159.109 0 .017-.067.063-.147.101s-.147.088-.147.109-.055.059-.117.084a1.431 1.431 0 0 0-.285.197c-.13.117-.189.143-.289.122a.382.382 0 0 1-.189-.096.948.948 0 0 0-.323-.218c-.055-.021-.096-.059-.096-.08 0-.025-.071-.075-.155-.117-.088-.038-.189-.105-.231-.147s-.105-.075-.138-.075a.126.126 0 0 1-.092-.055c-.029-.05-.394-.239-.453-.239a.407.407 0 0 1-.113-.084.537.537 0 0 0-.206-.105c-.067-.017-.122-.042-.122-.063 0-.017-.13-.076-.294-.13-.159-.05-.294-.109-.294-.126s-.126-.063-.281-.105c-.159-.042-.294-.088-.31-.109-.013-.017-.21-.076-.44-.126a3.156 3.156 0 0 1-.436-.117C10.464.25 9.52.116 9.327.116c-.071 0-.138-.021-.147-.042C9.167.028 7.473-.014 6.924.019zm1.925 2.03c.268.025.495.063.507.08s.117.042.231.059c.361.05.692.126.692.155 0 .017.071.042.159.055.235.046.612.164.663.214a.87.87 0 0 0 .222.105c.092.029.172.067.172.084s.075.055.168.084.201.088.247.13a.473.473 0 0 0 .185.101.508.508 0 0 1 .189.109c.05.042.164.117.256.168.096.05.172.101.172.117 0 .013.063.05.138.084.071.029.155.08.176.105.05.055.302.235.331.235.013 0 .113.092.226.205s.243.218.294.231c.05.017.092.046.092.067s.063.071.138.109a.631.631 0 0 1 .164.117c.038.059.738.063.78.004a.676.676 0 0 1 .21-.122c.096-.046.176-.096.176-.113 0-.021.055-.063.117-.096s.193-.134.285-.222c.197-.185.415-.348.474-.348.021 0 .046-.029.063-.063.013-.034.071-.084.13-.105s.105-.059.105-.084c0-.021.088-.08.201-.13a.83.83 0 0 0 .218-.126c.013-.017.096-.067.189-.105s.185-.092.21-.122c.021-.029.143-.088.264-.13.117-.042.218-.088.218-.101 0-.017.113-.063.252-.105s.252-.088.252-.105.172-.075.377-.13c.206-.05.377-.109.377-.126 0-.013.176-.063.39-.101.21-.042.394-.088.407-.105.046-.059.814-.126 1.418-.126s1.262.059 1.309.117c.013.017.151.063.315.105.159.042.302.088.315.109.013.017.126.063.252.105s.252.096.273.122c.025.029.117.088.21.134s.176.092.189.105c.038.038.185.126.285.168.05.021.092.059.092.084s.034.055.076.071c.038.017.143.096.231.176.369.348.726.713.805.818.046.063.117.151.159.197.038.042.071.092.071.109a.47.47 0 0 0 .105.155c.055.063.126.172.155.239s.067.122.08.122c.013 0 .059.084.096.189.042.105.088.189.109.189.017 0 .067.113.109.252s.088.252.105.252.055.101.08.218c.029.122.067.231.084.243.038.025.168.637.168.797 0 .067.017.126.038.134.096.034.172 1.556.084 1.724-.059.109-.206.235-.277.239a.192.192 0 0 0-.105.055c-.029.034-.168.092-.306.134s-.264.096-.277.113c-.013.021-.164.075-.336.122-.172.05-.319.105-.331.122s-.147.063-.302.105c-.159.042-.285.092-.285.109 0 .021-.034.038-.071.038-.113 0-.658.134-.684.172-.013.017-.302.071-.65.126-.344.05-.637.109-.65.122-.021.029-1.233.168-1.455.168-.076 0-.138.017-.138.038 0 .017-.159.046-.357.063-.604.05-1.153.147-1.22.214-.038.034-.088.063-.117.063-.076 0-.277.101-.277.138 0 .017-.042.05-.092.071-.147.063-.243.134-.398.294-.239.252-.264.277-.264.319 0 .025-.034.08-.076.126-.084.088-.218.537-.218.726 0 .067-.021.13-.05.138-.034.013-.055.545-.076 2.001-.017 1.09-.046 1.996-.067 2.009a.517.517 0 0 0-.084.109c-.101.189-.528.147-.633-.059-.029-.059-.055-.243-.055-.411 0-.164-.017-.302-.038-.302s-.046-.906-.059-2.131c-.017-2.026-.05-2.621-.155-2.693a.522.522 0 0 1-.08-.18c-.029-.084-.071-.155-.092-.155s-.038-.025-.038-.059c0-.109-.432-.516-.65-.612a1.48 1.48 0 0 1-.231-.122.846.846 0 0 0-.189-.105 1.02 1.02 0 0 1-.189-.109c-.013-.013-.105-.059-.21-.101s-.197-.088-.21-.105c-.013-.017-.134-.075-.273-.13s-.26-.113-.273-.126a.931.931 0 0 0-.218-.105c-.113-.042-.201-.088-.201-.101 0-.017-.122-.075-.273-.13s-.273-.113-.273-.13c0-.013-.084-.059-.189-.105-.105-.042-.189-.088-.189-.101 0-.017-.105-.071-.231-.122-.126-.055-.231-.109-.231-.126s-.084-.063-.189-.105c-.105-.046-.189-.096-.189-.113 0-.021-.084-.075-.189-.122s-.189-.101-.189-.122-.034-.046-.071-.063a.647.647 0 0 1-.298-.205c-.029-.038-.08-.071-.113-.071s-.084-.034-.113-.075a.665.665 0 0 0-.294-.201c-.042-.017-.075-.042-.075-.063s-.042-.059-.092-.08c-.143-.063-.26-.138-.298-.201-.017-.025-.059-.05-.092-.05s-.084-.034-.113-.075a.97.97 0 0 0-.252-.172c-.113-.055-.201-.113-.201-.13s-.075-.063-.168-.109c-.092-.042-.168-.092-.168-.109s-.084-.071-.189-.117c-.105-.046-.189-.101-.189-.117 0-.021-.08-.071-.176-.113a.915.915 0 0 1-.222-.126c-.021-.029-.109-.075-.189-.105s-.164-.075-.189-.105a.888.888 0 0 0-.239-.126c-.113-.042-.201-.088-.201-.101 0-.017-.092-.063-.21-.105-.113-.042-.21-.088-.21-.105 0-.013-.151-.071-.336-.126-.185-.059-.336-.117-.336-.134s-.143-.063-.315-.105-.315-.088-.315-.105-.231-.071-.512-.126c-.285-.055-.524-.109-.537-.126-.013-.013-.281-.063-.596-.105-.319-.042-.579-.088-.579-.105s-.151-.042-.336-.059c-.327-.029-.449-.08-.319-.13.038-.013.067-.05.067-.075 0-.029.042-.092.096-.138.05-.05.205-.214.34-.365.138-.151.268-.277.294-.277s.109-.067.189-.147.164-.147.193-.147.063-.029.08-.063c.013-.034.096-.096.193-.134.092-.042.168-.088.168-.109 0-.017.067-.063.147-.096s.147-.075.147-.096c0-.021.134-.08.294-.13.164-.05.294-.109.294-.126s.155-.063.348-.105c.189-.042.352-.092.365-.113.071-.101 1.342-.143 2.093-.071zM3.682 6.421c.327.029.596.067.596.084 0 .021.042.038.096.038.143-.004.969.138.994.172.013.013.193.071.398.122.21.055.386.113.398.126.013.017.138.063.285.105.143.042.26.092.26.109 0 .013.113.071.252.122s.252.109.252.126.08.055.172.084a.87.87 0 0 1 .222.105c.055.055.424.231.482.231.021 0 .046.029.063.063.013.034.046.063.08.063.029 0 .092.038.143.08.046.046.164.122.26.168.092.05.172.105.172.126s.034.05.075.063c.138.055.26.13.26.164 0 .017.042.05.096.071a.824.824 0 0 1 .315.218c.029.042.08.075.113.075s.075.025.092.05c.038.059.155.138.289.197.05.021.101.071.113.105.017.038.05.067.08.067s.122.059.201.126.168.126.197.126.075.034.105.075.126.109.214.147c.084.042.155.088.155.105s.075.067.168.109c.092.046.168.092.168.109s.096.071.21.122c.117.05.21.105.21.126 0 .017.084.067.189.113.105.042.189.088.189.101 0 .017.105.071.231.122.126.055.231.109.231.126s.096.063.21.105c.117.042.21.088.21.105s.105.063.235.109.26.101.285.126c.025.021.151.075.277.122.126.042.239.092.252.105.013.017.143.075.294.13s.281.113.294.126c.013.017.08.055.147.088.113.055.13.084.151.31.017.138.029 1.057.034 2.042.004 1.166.021 1.795.046 1.795s.042.155.042.377c0 .415.075 1.007.13 1.007.017 0 .063.101.096.226.038.126.096.235.13.252.034.013.063.05.063.084 0 .055.382.457.616.654.105.088.365.21.449.21.038 0 .067.017.067.038 0 .063.382.134.839.159.432.025 1.116-.067 1.174-.151a.544.544 0 0 1 .18-.092c.092-.029.18-.092.201-.13.021-.042.067-.076.096-.076.059 0 .57-.495.57-.554 0-.021.05-.088.117-.151.122-.122.26-.528.26-.78 0-.08.021-.151.046-.159.038-.013.055-.503.067-1.774.017-1.975.046-2.29.206-2.365a.6.6 0 0 1 .185-.046c.046 0 .084-.017.084-.038 0-.017.193-.046.432-.063.688-.046 1.682-.155 1.707-.189.013-.017.268-.063.566-.105.302-.042.554-.092.566-.109s.247-.071.524-.126.512-.109.524-.126c.013-.013.172-.059.357-.101s.344-.092.357-.105c.013-.017.185-.075.39-.13.201-.05.365-.109.365-.13 0-.038.247-.096.277-.067s-.076.365-.113.365c-.017 0-.055.105-.084.235s-.076.256-.101.285c-.025.025-.08.155-.126.285-.042.134-.092.243-.109.243-.013 0-.059.105-.101.231-.038.126-.084.231-.101.231s-.059.075-.088.168c-.029.092-.071.168-.088.168s-.063.092-.105.21c-.042.113-.088.21-.101.21-.017 0-.063.075-.105.168s-.092.168-.113.168c-.017 0-.034.025-.034.055s-.034.092-.071.138a1.318 1.318 0 0 0-.159.235c-.046.088-.096.159-.109.159-.017 0-.059.067-.096.147s-.088.147-.105.147-.055.05-.084.113-.088.138-.134.172c-.042.029-.08.075-.08.101s-.042.088-.092.143a3.631 3.631 0 0 0-.201.226c-.289.352-1.124 1.212-1.367 1.405-.084.067-.214.18-.289.252-.071.067-.206.18-.294.252a1.923 1.923 0 0 0-.268.239c-.059.067-.13.117-.159.117-.025 0-.067.025-.084.059s-.105.101-.189.151c-.088.05-.159.105-.159.122 0 .013-.071.063-.155.109a.815.815 0 0 0-.214.155c-.029.042-.08.076-.105.076-.029 0-.101.046-.168.101a1.108 1.108 0 0 1-.239.151c-.071.029-.126.067-.126.088s-.084.076-.189.122-.189.101-.189.122-.084.071-.189.117c-.105.042-.189.088-.189.105 0 .013-.088.067-.197.122-.113.05-.21.105-.222.117a1.05 1.05 0 0 1-.197.109c-.101.046-.18.096-.18.113 0 .013-.092.059-.21.096-.113.038-.222.092-.239.122a.71.71 0 0 1-.243.13 1.714 1.714 0 0 0-.231.105c-.013.017-.143.071-.294.126s-.281.113-.294.13a1.029 1.029 0 0 1-.231.105 1.183 1.183 0 0 0-.231.096c-.013.017-.159.076-.323.126-.168.055-.306.113-.306.134s-.025.038-.059.038c-.076 0-.503.134-.528.168-.013.017-.189.071-.398.122-.206.05-.39.117-.407.143-.038.063-.491.063-.528.004-.017-.025-.206-.088-.415-.147-.214-.055-.39-.113-.39-.126 0-.017-.126-.063-.281-.105-.159-.042-.294-.088-.306-.105s-.159-.071-.323-.122c-.168-.05-.306-.105-.306-.122s-.113-.063-.252-.105-.252-.092-.252-.109-.13-.076-.294-.126c-.159-.05-.294-.109-.294-.126s-.088-.063-.197-.105a1.157 1.157 0 0 1-.222-.101 1.31 1.31 0 0 0-.239-.13c-.122-.059-.222-.117-.222-.134 0-.013-.055-.038-.122-.055a.526.526 0 0 1-.197-.096 1.815 1.815 0 0 0-.298-.172c-.122-.059-.222-.117-.222-.134s-.055-.046-.117-.071a.458.458 0 0 1-.18-.105c-.034-.034-.143-.101-.239-.151s-.176-.105-.176-.122-.075-.063-.168-.105c-.092-.038-.168-.088-.168-.113 0-.021-.084-.076-.185-.122s-.193-.113-.21-.151c-.013-.034-.05-.063-.084-.063-.038 0-.096-.046-.134-.105s-.092-.105-.117-.105c-.055 0-.268-.168-.449-.348-.063-.063-.13-.113-.151-.113-.025 0-.147-.105-.277-.231s-.247-.231-.264-.231c-.017 0-.096-.067-.18-.147-.742-.713-.885-.856-.885-.889 0-.017-.092-.117-.21-.218-.113-.101-.21-.206-.21-.235 0-.025-.059-.088-.126-.138-.071-.055-.126-.109-.126-.13 0-.017-.084-.126-.189-.239-.105-.109-.189-.222-.189-.252 0-.025-.029-.059-.063-.075-.034-.013-.084-.071-.105-.13s-.059-.105-.08-.105-.059-.059-.088-.126c-.029-.071-.067-.126-.088-.126-.017 0-.067-.067-.105-.147s-.08-.147-.096-.147c-.017 0-.063-.084-.105-.189-.046-.105-.096-.189-.117-.189s-.059-.059-.08-.126c-.025-.071-.059-.126-.075-.126s-.063-.096-.105-.21c-.042-.117-.092-.21-.109-.21s-.067-.096-.109-.21c-.042-.117-.088-.21-.109-.21-.017 0-.05-.075-.075-.168s-.063-.168-.084-.168c-.025 0-.042-.021-.042-.05 0-.092-.143-.537-.176-.537-.013 0-.059-.147-.101-.327a2 2 0 0 0-.096-.344c-.038-.025-.13-.436-.13-.566 0-.055-.017-.105-.038-.113-.038-.013-.172-.86-.172-1.099 0-.084-.017-.151-.042-.151s-.042-.285-.042-.776.017-.776.042-.776.042-.113.042-.252c0-.331.122-1.191.172-1.208.021-.008.038-.05.038-.092 0-.134.034-.134 1.25-.038z"/></symbol><symbol id="icon-milk" viewBox="0 0 21 32"><path d="M2.333.144c-.349.188-.552.563-.552 1.006.006.813.209 1.556.614 2.2l.178.294-.338.381c-.381.425-.473.581-.644 1.088-.141.412-.154 1.162-.031 1.581.429 1.437 1.854 2.269 3.247 1.9.473-.125.762-.282 1.203-.657l.375-.312.35.175c.196.1.528.243.742.324l.381.138v.7c0 1.106.227 1.763.81 2.356s1.498.9 2.291.762c.564-.1 1.117-.381 1.491-.762.584-.594.811-1.251.811-2.356v-.7l.387-.138a9.56 9.56 0 0 0 .737-.325l.349-.175.374.312c.442.375.731.531 1.203.657 1.394.369 2.819-.463 3.248-1.9.123-.419.111-1.169-.031-1.581-.172-.507-.264-.663-.644-1.088l-.337-.381.178-.294c.405-.643.608-1.388.614-2.2 0-.444-.204-.819-.553-1.006l-.264-.144H2.596l-.264.144zm14.736 1.955c0 .019-.179.313-.399.662-.651 1.032-.626 1.256.239 2.17.314.331.602.662.645.737.233.463-.234 1.038-.749.919-.124-.026-.394-.243-.787-.631-.786-.775-1.056-.863-1.658-.518-.694.399-1.578.806-2.008.924-.608.175-.817.307-.976.637-.129.256-.141.363-.141 1.363 0 1.231-.05 1.431-.399 1.6-.252.125-.301.125-.553 0-.35-.169-.399-.369-.399-1.6 0-1-.013-1.107-.135-1.363-.166-.324-.374-.462-.982-.637-.528-.15-1.308-.493-1.738-.774-.405-.262-.762-.363-1.043-.313-.185.038-.369.181-.86.662-.405.394-.694.625-.817.65-.509.119-.976-.463-.742-.919.043-.075.332-.406.644-.737.865-.913.89-1.137.239-2.169-.221-.349-.399-.643-.399-.662 0-.025 2.929-.037 6.508-.037s6.508.013 6.508.037zM.485 13.206c-.314.212-.485.512-.485.844 0 .225 3.119 16.925 3.229 17.275.055.194.282.425.522.55.227.125.387.125 6.809.125s6.582 0 6.809-.125c.239-.125.467-.356.522-.55.111-.35 3.229-17.05 3.229-17.275 0-.331-.172-.631-.485-.844l-.209-.144H.694l-.209.144zm18.21 2.275c-.061.5-.418 1.587-.682 2.081-1.283 2.375-3.715 3.819-6.729 3.987-2.278.132-4.205-.331-5.82-1.393a7.057 7.057 0 0 1-2.247-2.402l-.018-.035c-.307-.544-.712-1.713-.774-2.238l-.043-.356h16.356l-.043.356zM4.39 21.919c2.634 1.775 6.569 2.244 9.885 1.169a10.708 10.708 0 0 0 3.18-1.687c.276-.219.294-.219.264-.082-.019.081-.381 1.994-.804 4.244s-.78 4.156-.798 4.232l-.031.143H5.034l-.031-.143c-.018-.075-.374-1.981-.798-4.232s-.786-4.163-.804-4.243c-.031-.138-.013-.138.264.081.16.125.491.356.724.518z"/></symbol><symbol id="icon-fruits" viewBox="0 0 32 32"><path d="M29.626 21.411c-1.292-.458-2.381-.344-3.242.018.145-.877.47-1.832 1.169-2.481a1.065 1.065 0 1 0-1.448-1.561c-1.229 1.14-1.706 2.749-1.874 4.081a3.929 3.929 0 0 0-1.035-.308l-.023-.003 1.89-9.83a1.064 1.064 0 0 0-1.045-1.266h-.205c.094-.5.141-.997.138-1.47-.016-1.994-.903-3.495-2.374-4.017-1.409-.5-2.589-.35-3.507.066.146-.976.495-2.063 1.282-2.794A1.065 1.065 0 1 0 17.904.285c-1.32 1.226-1.815 2.966-1.981 4.387-.735-.348-1.644-.526-2.709-.33-1.094-1.571-2.612-2.295-4.09-1.941-1.451.348-2.358 1.115-2.9 1.962-.41-.899-.712-2.001-.452-3.036A1.065 1.065 0 0 0 3.708.799l-.002.007c-.439 1.746.095 3.475.73 4.758-1.016.138-2.118.65-3.049 1.866-.578.755-.773 1.698-.596 2.7a1.066 1.066 0 0 0-.672 1.204l-.001-.007 3.809 19.809c.096.502.535.864 1.046.864H20.21c.51 0 .949-.362 1.046-.864l.037-.195c.287.198.595.364.927.486 1.267.472 2.447.278 3.044.118.316.084.795.179 1.364.179.506 0 1.084-.075 1.68-.297 2.36-.879 3.615-3.839 3.596-6.178-.015-1.904-.865-3.34-2.275-3.839zm-6.951-9.22c-.491 4.705-4.452 7.909-9.971 7.909s-9.481-3.204-9.971-7.909h19.942zm-6.643-4.676a1.048 1.048 0 0 0 1.862 0 2.66 2.66 0 0 1 .76-.771l.01-.006c.629-.408 1.35-.46 2.203-.157.851.301.952 1.518.956 2.027a5.74 5.74 0 0 1-.19 1.453h-7.126c.236-1.19.094-2.492-.289-3.669.392.022.751.149 1.055.351l-.008-.005c.31.205.567.465.763.767l.006.01zM3.077 8.724c.55-.719 1.183-1.069 1.933-1.069h.002c.57 0 1.016.207 1.066.232.341.189.749.172 1.078-.037.332-.211.51-.592.481-.983-.006-.077-.115-1.894 1.983-2.397.877-.211 1.626.754 1.906 1.178.808 1.221 1.222 3.108.777 4.413H2.955c-.141-.443-.179-.943.122-1.336zM5.852 29.87 3.741 18.893c.138.132.28.262.428.388 2.208 1.901 5.239 2.948 8.535 2.948s6.328-1.047 8.535-2.948l.152-.134-.431 2.243-.061.02c-1.411.5-2.261 1.935-2.276 3.839-.01 1.165.297 2.483.898 3.622l-.192.998H5.852zm21.71-.438c-.943.351-1.881.017-1.916.004a1.034 1.034 0 0 0-.775.003l.007-.003c-.01.004-.96.352-1.917-.004-1.338-.499-2.223-2.556-2.21-4.166.004-.465.095-1.578.858-1.849.279-.107.601-.17.937-.175h.002c1.107 0 1.658.812 1.782 1.024a1.046 1.046 0 0 0 1.862 0c.156-.265.977-1.468 2.721-.849.763.271.854 1.383.858 1.85.013 1.609-.872 3.667-2.21 4.165z"/></symbol><symbol id="icon-arrow" viewBox="0 0 26 32"><path fill="none" stroke="#d41443" style="stroke:var(--color1,#d41443)" stroke-linejoin="round" stroke-linecap="round" stroke-width="6.4" d="M3.542 3.2 20.368 16 3.542 28.8"/></symbol><symbol id="icon-modal-logo_how-its-made" viewBox="0 0 127 32"><path fill="#fff" style="fill:var(--color1,#fff)" d="M31.36 16.32C31.36 24.98 24.483 32 16 32S.64 24.98.64 16.32 7.517.64 16 .64s15.36 7.02 15.36 15.68z"/><path fill="#d41443" style="fill:var(--color2,#d41443)" d="M11.849.561C4.444 2.804 0 8.635 0 16.003c0 6.022 3.091 11.277 8.179 13.904 2.64 1.345 3.027.384.579-1.474-1.738-1.409-2.061-2.05-2.061-4.421 0-1.666-.386-3.011-.966-3.524-1.158-.961-1.288-3.46-.128-4.357.45-.384.901-1.666.965-2.819.323-4.228 4.895-8.201 9.467-8.201s9.144 3.972 9.466 8.201c.064 1.153.515 2.435.966 2.819 1.158.897 1.03 3.396-.129 4.357-.579.513-.966 1.858-.966 3.524 0 2.371-.321 3.012-2.06 4.421-2.705 2.115-1.932 2.883 1.094 1.025 4.251-2.627 7.406-8.33 7.406-13.391 0-10.124-10.561-18.325-19.964-15.506z"/><path fill="#d41443" style="fill:var(--color2,#d41443)" d="M12.687 7.994c-1.16.513-2.125 1.154-2.125 1.538 0 .705 3.478 1.987 5.474 1.987s5.474-1.281 5.474-1.987c0-.768-3.993-2.499-5.603-2.499-.644.064-2.125.448-3.22.961zm33.164 3.332c-.966.256-1.158 1.089-1.158 5.702v5.382h4.572l-.193-5.574c-.193-5.83-.451-6.28-3.22-5.51zm7.535.32c-2.125 1.154-2.898 2.563-2.898 5.318 0 3.78 2.061 5.574 5.86 5.318 2.576-.192 2.833-.385 3.027-1.987s.064-1.73-1.932-1.602c-2.061.192-2.125.064-2.125-2.051s.129-2.243 1.997-2.05c1.545.128 2.125-.128 2.382-1.089.129-.641 0-1.538-.387-1.923-.901-.897-4.25-.897-5.924.064zm7.664.064c-.194.513-.258 3.012-.129 5.638l.193 4.742H65.3c3.864 0 4.186-.128 4.379-1.474.193-1.217-.064-1.409-2.06-1.409-1.288 0-2.319-.32-2.319-.641 0-.385.902-.641 1.932-.641 1.481 0 1.932-.256 1.932-1.281s-.451-1.281-1.932-1.281c-1.03 0-1.932-.32-1.932-.641 0-.385.837-.641 1.868-.641 1.804 0 3.027-1.409 2.254-2.627-.58-.961-7.985-.705-8.371.256zm12.943-.192c-2.125.833-2.962 2.307-3.027 4.998-.065 4.613 1.803 6.215 6.633 5.766 1.868-.128 2.189-.448 2.189-1.794 0-1.409-.257-1.602-2.061-1.409-1.546.128-2.125-.064-2.447-1.089-.58-1.987.644-3.588 2.705-3.588 1.224 0 1.868-.384 1.996-1.217.451-2.051-2.833-3.011-5.989-1.666zm7.921-.256c-.323.256-.515 2.883-.515 5.83v5.382l2.06-.192c1.61-.128 2.19-.577 2.512-1.795l.386-1.602.515 1.73c.387 1.474.837 1.795 2.512 1.795 2.769 0 3.091-.449 1.932-2.691-.708-1.41-.837-2.115-.322-2.627.837-.833.902-3.652.129-4.87-.644-1.025-8.371-1.858-9.208-.961zm5.28 3.46c0 .705-.257 1.281-.644 1.281-.322 0-.644-.576-.644-1.281s.322-1.282.644-1.282c.387 0 .644.577.644 1.282zm6.247-3.396c-.258.192-.451 2.819-.451 5.766v5.318h4.186c4.057 0 4.186-.064 4.186-1.602 0-1.346-.322-1.602-1.932-1.602-1.03 0-1.932-.32-1.932-.641 0-.385.708-.641 1.61-.641 1.159 0 1.61-.321 1.61-1.282s-.451-1.281-1.61-1.281c-.902 0-1.61-.32-1.61-.641 0-.384.902-.641 1.932-.641 1.61 0 1.932-.256 1.932-1.602 0-1.538-.193-1.602-3.735-1.602-2.061 0-3.992.192-4.186.448zm13.009-.064c-1.16.32-4.122 8.842-3.542 10.252.515 1.281 3.413 1.153 4.186-.192.579-1.089.644-1.089 1.803 0 1.482 1.281 4.701 1.474 4.701.256 0-.384-.644-2.947-1.482-5.574-1.288-4.228-1.674-4.805-3.027-4.933-.902 0-2.061.064-2.64.192zm1.803 5.83c-.193.641-.322.256-.322-.769 0-1.089.129-1.538.322-1.153.129.448.129 1.345 0 1.922zm7.47-5.766c-.58.192-.837 1.986-.837 5.702v5.382h1.868c1.61 0 1.932-.321 2.189-1.795.257-1.666.257-1.666.772-.32.258.833.902 1.474 1.352 1.474.515 0 1.224-.641 1.546-1.474.515-1.346.58-1.346.58.384.065 1.602.257 1.795 2.061 1.602l1.996-.192.065-5.318c.129-4.933.064-5.318-1.288-5.638-2.061-.512-3.799.705-4.379 3.076l-.451 2.115-.708-2.243c-.902-3.012-2.254-3.78-4.765-2.755zm-106.707.641c-.193.256-.387 1.089-.387 1.922 0 1.474.064 1.474 7.406 1.474 7.341 0 7.405 0 7.405-1.474 0-2.179-.579-2.435-2.64-1.409-2.319 1.217-7.213 1.217-9.531 0-1.03-.513-1.997-.705-2.254-.513zm-1.868 5.702c-1.03 1.089.708 1.538 5.731 1.538h5.409v2.243c0 1.217.322 2.243.644 2.243.386 0 .644-.961.644-2.179 0-2.115.129-2.243 2.576-2.435 1.416-.128 2.576-.512 2.576-.832 0-.705-16.872-1.282-17.581-.577z"/><path fill="#d41443" style="fill:var(--color2,#d41443)" d="M8.629 23.308c0 3.524 1.224 4.229 7.406 4.229s7.405-.705 7.405-4.229c0-1.538-.322-2.179-.966-2.179-.579 0-.965.577-.965 1.538 0 3.588-4.895 3.908-5.603.384-.322-1.858-.515-1.922-3.799-1.922H8.629v2.179zm3.993 7.24c.387 2.051 6.955 1.859 6.955-.128 0-.705-.837-.961-3.606-.961-3.027 0-3.542.192-3.348 1.089z"/></symbol></defs></svg>